<svg xmlns="http://www.w3.org/2000/svg" x="0px" y="0px" width="100" height="100" viewBox="0,0,256,256">
<g transform=""><g fill="#004483" fill-rule="nonzero" stroke="none" stroke-width="1" stroke-linecap="butt" stroke-linejoin="miter" stroke-miterlimit="10" stroke-dasharray="" stroke-dashoffset="0" font-family="none" font-weight="none" font-size="none" text-anchor="none" style="mix-blend-mode: normal"><g transform="scale(3.55556,3.55556)"><path d="M45.049,14c12.011,0 12.951,0.94 12.951,12.951v18.098c0,12.011 -0.94,12.951 -12.951,12.951h-18.098c-12.011,0 -12.951,-0.94 -12.951,-12.951v-18.098c0,-12.011 0.94,-12.951 12.951,-12.951zM29.713,44.151c4.502,0 8.151,-3.649 8.151,-8.151c0,-4.502 -3.649,-8.151 -8.151,-8.151c-4.502,0 -8.151,3.649 -8.151,8.151c0,4.502 3.65,8.151 8.151,8.151zM42.713,43.757c2.228,0 4.034,-3.473 4.034,-7.757c0,-4.284 -1.806,-7.757 -4.034,-7.757c-2.228,0 -4.034,3.473 -4.034,7.757c0,4.284 1.806,7.757 4.034,7.757zM48.98,42.928c0.775,0 1.403,-3.102 1.403,-6.928c0,-3.826 -0.628,-6.928 -1.403,-6.928c-0.775,0 -1.403,3.102 -1.403,6.928c0,3.826 0.628,6.928 1.403,6.928z"></path></g></g></g>
</svg>