<svg width="186" height="29" viewBox="0 0 186 29" fill="none" xmlns="http://www.w3.org/2000/svg">
<path d="M8.92322 28.932C5.53922 28.932 2.68322 28.308 0.355222 27.06L2.15522 21.48C4.62722 22.368 6.83522 22.812 8.77922 22.812C9.83522 22.812 10.6032 22.692 11.0832 22.452C11.5872 22.188 11.8392 21.804 11.8392 21.3C11.8392 20.964 11.7072 20.676 11.4432 20.436C11.1792 20.172 10.6512 19.884 9.85922 19.572C9.06722 19.26 7.87922 18.876 6.29522 18.42C4.35122 17.844 2.83922 16.908 1.75922 15.612C0.679222 14.292 0.139222 12.78 0.139222 11.076C0.139222 8.43596 1.00322 6.44396 2.73122 5.09996C4.48322 3.73196 6.83522 3.04796 9.78722 3.04796C11.3232 3.04796 12.8352 3.21596 14.3232 3.55196C15.8112 3.86396 17.1312 4.33196 18.2832 4.95596L16.3392 10.392C14.9952 9.93596 13.8192 9.61196 12.8112 9.41996C11.8272 9.20396 10.8672 9.09596 9.93122 9.09596C8.34722 9.09596 7.55522 9.52796 7.55522 10.392C7.55522 10.824 7.80722 11.196 8.31122 11.508C8.83922 11.796 9.90722 12.168 11.5152 12.624C14.0352 13.296 15.9432 14.328 17.2392 15.72C18.5352 17.088 19.1832 18.732 19.1832 20.652C19.1832 23.316 18.3192 25.368 16.5912 26.808C14.8632 28.224 12.3072 28.932 8.92322 28.932ZM31.4879 28.644C29.4719 28.644 27.6719 28.248 26.0879 27.456C24.5279 26.664 23.3039 25.572 22.4159 24.18C21.5519 22.764 21.1199 21.144 21.1199 19.32C21.1199 17.496 21.5639 15.888 22.4519 14.496C23.3399 13.08 24.5639 11.988 26.1239 11.22C27.7079 10.452 29.5079 10.068 31.5239 10.068C33.5639 10.068 35.3639 10.464 36.9239 11.256C38.5079 12.024 39.7319 13.104 40.5959 14.496C41.4599 15.888 41.8919 17.496 41.8919 19.32C41.8919 21.168 41.4479 22.8 40.5599 24.216C39.6959 25.608 38.4719 26.7 36.8879 27.492C35.3279 28.26 33.5279 28.644 31.4879 28.644ZM31.5599 23.244C32.5439 23.244 33.3479 22.884 33.9719 22.164C34.6199 21.42 34.9439 20.472 34.9439 19.32C34.9439 18.168 34.6199 17.232 33.9719 16.512C33.3479 15.768 32.5439 15.396 31.5599 15.396C30.5759 15.396 29.7599 15.768 29.1119 16.512C28.4879 17.232 28.1759 18.168 28.1759 19.32C28.1759 20.472 28.4879 21.42 29.1119 22.164C29.7599 22.884 30.5759 23.244 31.5599 23.244ZM44.5902 10.572H51.8262V14.244C53.2182 11.46 55.4262 10.068 58.4502 10.068C60.7542 10.068 62.5542 10.896 63.8502 12.552C65.1702 14.184 65.8302 16.452 65.8302 19.356V28.356H58.2702V18.6C58.2702 17.568 58.0422 16.776 57.5862 16.224C57.1542 15.672 56.5422 15.396 55.7502 15.396C55.1742 15.396 54.6102 15.588 54.0582 15.972C53.5062 16.332 53.0502 16.86 52.6902 17.556C52.3542 18.252 52.1862 19.044 52.1862 19.932V28.356H44.5902V10.572ZM75.6411 28.644C73.6251 28.644 72.0531 27.996 70.9251 26.7C69.7971 25.404 69.2331 23.64 69.2331 21.408V10.32H76.8651V21.084C76.8651 21.636 77.0091 22.068 77.2971 22.38C77.6091 22.668 78.0051 22.812 78.4851 22.812C78.9651 22.812 79.4571 22.668 79.9611 22.38L80.3571 27.384C79.8291 27.792 79.1331 28.104 78.2691 28.32C77.4291 28.536 76.5531 28.644 75.6411 28.644ZM73.0491 7.61996C71.9211 7.61996 70.9611 7.27196 70.1691 6.57596C69.4011 5.85596 69.0171 4.97996 69.0171 3.94796C69.0171 2.91596 69.4251 2.05196 70.2411 1.35595C71.0571 0.659955 71.9931 0.311955 73.0491 0.311955C74.1531 0.311955 75.1011 0.671956 75.8931 1.39196C76.7091 2.11196 77.1171 2.96396 77.1171 3.94796C77.1171 5.00396 76.7091 5.87996 75.8931 6.57596C75.0771 7.27196 74.1291 7.61996 73.0491 7.61996ZM90.4095 28.644C88.8495 28.644 87.3855 28.236 86.0175 27.42C84.6735 26.58 83.5935 25.452 82.7775 24.036C81.9615 22.596 81.5535 21 81.5535 19.248C81.5535 17.52 81.9615 15.96 82.7775 14.568C83.5935 13.152 84.6855 12.048 86.0535 11.256C87.4215 10.464 88.8735 10.068 90.4095 10.068C91.6575 10.068 92.8095 10.416 93.8655 11.112C94.9455 11.808 95.7615 12.852 96.3135 14.244V10.068H103.874V28.356H96.3135V25.008C95.1135 27.432 93.1455 28.644 90.4095 28.644ZM92.7495 22.956C93.7095 22.956 94.5255 22.62 95.1975 21.948C95.8935 21.252 96.2655 20.436 96.3135 19.5V19.212C96.2655 18.252 95.8815 17.436 95.1615 16.764C94.4655 16.092 93.6615 15.756 92.7495 15.756C91.7415 15.756 90.8775 16.116 90.1575 16.836C89.4615 17.532 89.1135 18.372 89.1135 19.356C89.1135 20.364 89.4735 21.216 90.1935 21.912C90.9135 22.608 91.7655 22.956 92.7495 22.956ZM114.775 3.58796H122.263L128.455 15.612L134.503 3.58796H141.991V28.356H134.503V15.144L129.931 23.784H126.871L122.263 15.144V28.356H114.775V3.58796ZM153.937 28.644C152.377 28.644 150.913 28.236 149.545 27.42C148.201 26.58 147.121 25.452 146.305 24.036C145.489 22.596 145.081 21 145.081 19.248C145.081 17.52 145.489 15.96 146.305 14.568C147.121 13.152 148.213 12.048 149.581 11.256C150.949 10.464 152.401 10.068 153.937 10.068C155.185 10.068 156.337 10.416 157.393 11.112C158.473 11.808 159.289 12.852 159.841 14.244V10.068H167.401V28.356H159.841V25.008C158.641 27.432 156.673 28.644 153.937 28.644ZM156.277 22.956C157.237 22.956 158.053 22.62 158.725 21.948C159.421 21.252 159.793 20.436 159.841 19.5V19.212C159.793 18.252 159.409 17.436 158.689 16.764C157.993 16.092 157.189 15.756 156.277 15.756C155.269 15.756 154.405 16.116 153.685 16.836C152.989 17.532 152.641 18.372 152.641 19.356C152.641 20.364 153.001 21.216 153.721 21.912C154.441 22.608 155.293 22.956 156.277 22.956ZM171.047 10.572H178.643V14.244C179.195 12.828 179.939 11.784 180.875 11.112C181.835 10.416 182.951 10.068 184.223 10.068L185.267 15.936C182.987 15.936 181.307 16.188 180.227 16.692C179.171 17.172 178.643 17.94 178.643 18.996V28.356H171.047V10.572Z" fill="#004483"/>
</svg>
